<?xml version="1.0" encoding="iso-8859-1"?>
<!-- Generator: Adobe Illustrator 19.0.0, SVG Export Plug-In . SVG Version: 6.00 Build 0)  -->
<svg version="1.1" id="Layer_1" xmlns="http://www.w3.org/2000/svg" xmlns:xlink="http://www.w3.org/1999/xlink" x="0px" y="0px"
	 viewBox="0 0 512 512" style="enable-background:new 0 0 512 512;" xml:space="preserve">
<g>
	<g>
		<g>
			<path d="M448,384h-8.171l44.907-89.771c8.725-17.451,7.787-37.781-2.475-54.4c-10.261-16.597-28.032-26.496-47.552-26.496
				H315.008l86.485-144.128l17.835,44.565C398.464,124.331,384,145.728,384,170.667c0,11.776,9.536,21.333,21.333,21.333
				c11.797,0,21.333-9.557,21.333-21.333c0-11.755,9.536-21.312,21.312-21.333H448h0.021c11.755,0.021,21.312,9.579,21.312,21.333
				c0,11.776,9.536,21.333,21.333,21.333S512,182.443,512,170.667c0-29.995-20.821-55.061-48.725-61.952l-38.123-95.317
				c-0.341-0.811-0.981-1.344-1.387-2.112c-0.704-1.28-1.429-2.496-2.411-3.627c-0.939-1.109-1.984-1.984-3.115-2.859
				c-0.704-0.533-1.152-1.301-1.92-1.749c-0.448-0.277-0.96-0.277-1.429-0.512c-1.259-0.64-2.56-1.003-3.925-1.387
				c-1.344-0.384-2.645-0.768-4.011-0.875c-1.28-0.107-2.517,0.064-3.819,0.213c-1.493,0.149-2.923,0.32-4.331,0.789
				c-0.469,0.128-0.939,0.064-1.387,0.235c-0.811,0.341-1.365,0.981-2.112,1.387c-1.301,0.704-2.517,1.429-3.648,2.389
				c-1.131,0.96-2.005,2.027-2.901,3.179c-0.533,0.683-1.259,1.131-1.707,1.877l-99.627,166.037L264.235,60.373
				C257.259,25.387,226.261,0,190.613,0H64C52.203,0,42.667,9.557,42.667,21.333v213.333v64h106.667
				c11.797,0,21.333,9.557,21.333,21.333s-9.536,21.333-21.333,21.333H42.667v46.592C17.899,396.757,0,420.224,0,448
				c0,35.285,28.715,64,64,64h384c35.285,0,64-28.715,64-64C512,412.715,483.285,384,448,384z M85.333,213.333V42.667h105.28
				c15.381,0,28.757,10.965,31.787,26.069l28.907,144.597H85.333z M64,469.333c-11.776,0-21.333-9.579-21.333-21.333
				c0-11.755,9.557-21.333,21.333-21.333S85.333,436.245,85.333,448C85.333,459.755,75.776,469.333,64,469.333z M387.925,469.333
				H124.075C126.464,462.635,128,455.509,128,448c0-7.509-1.536-14.635-3.925-21.333h263.851C385.536,433.365,384,440.491,384,448
				C384,455.509,385.536,462.635,387.925,469.333z M448,469.333c-11.776,0-21.333-9.579-21.333-21.333
				c0-11.755,9.557-21.333,21.333-21.333s21.333,9.579,21.333,21.333C469.333,459.755,459.776,469.333,448,469.333z"/>
			<path d="M228.958,166.739l-16-85.333c-1.877-10.091-10.688-17.408-20.949-17.408h-64c-11.797,0-21.333,9.557-21.333,21.333
				v85.333c0,11.776,9.536,21.333,21.333,21.333h80c6.336,0,12.352-2.816,16.405-7.701
				C228.489,179.411,230.153,172.969,228.958,166.739z"/>
		</g>
	</g>
</g>
<g>
</g>
<g>
</g>
<g>
</g>
<g>
</g>
<g>
</g>
<g>
</g>
<g>
</g>
<g>
</g>
<g>
</g>
<g>
</g>
<g>
</g>
<g>
</g>
<g>
</g>
<g>
</g>
<g>
</g>
</svg>
