<?xml version="1.0" encoding="iso-8859-1"?>
<!-- Generator: Adobe Illustrator 19.0.0, SVG Export Plug-In . SVG Version: 6.00 Build 0)  -->
<svg version="1.1" id="Layer_1" xmlns="http://www.w3.org/2000/svg" xmlns:xlink="http://www.w3.org/1999/xlink" x="0px" y="0px"
	 viewBox="0 0 511.979 511.979" style="enable-background:new 0 0 511.979 511.979;" xml:space="preserve">
<g>
	<g>
		<path d="M373.333,202.656c-11.029,0-21.717,1.429-32,3.883v-99.883c0-13.888-8.939-25.621-21.333-30.037V63.989
			c0-17.643-14.357-32-32-32c-5.888,0-10.667,4.779-10.667,10.667S282.112,53.323,288,53.323s10.667,4.779,10.667,10.667v12.629
			c-12.395,4.416-21.333,16.149-21.333,30.037v82.816l-43.797-87.573c-0.107-0.213-0.363-0.32-0.491-0.533
			c-0.747-1.28-1.728-2.325-2.923-3.179c-0.384-0.277-0.704-0.533-1.109-0.747c-1.493-0.853-3.157-1.451-5.013-1.451h-96
			c-4.885,0-9.173,3.328-10.347,8.085L86.379,229.216L3.136,312.459C1.131,314.443,0,317.152,0,319.989v85.333
			c0,5.888,4.779,10.667,10.667,10.667h32c0,35.285,28.715,64,64,64s64-28.715,64-64c0-0.981-0.256-1.899-0.299-2.88l55.36-18.453
			h19.627c20.949,50.048,70.4,85.333,127.957,85.333c76.459,0,138.667-62.208,138.667-138.667S449.792,202.656,373.333,202.656z
			 M106.667,458.656C83.136,458.656,64,439.52,64,415.989c0-2.901,0.299-5.76,0.853-8.512l0.021-0.043
			c0.107-0.491,0.299-0.939,0.427-1.429c0.512-2.112,1.109-4.181,1.92-6.165c0.341-0.832,0.811-1.579,1.195-2.389
			c0.747-1.557,1.536-3.093,2.475-4.544c0.555-0.853,1.195-1.643,1.792-2.432c0.939-1.259,1.92-2.475,2.987-3.605
			c0.747-0.789,1.557-1.536,2.368-2.283c1.088-0.981,2.197-1.92,3.371-2.795c0.917-0.683,1.877-1.344,2.837-1.941
			c1.216-0.768,2.517-1.429,3.819-2.069c1.024-0.512,2.048-1.024,3.115-1.429c1.493-0.597,3.072-1.024,4.651-1.451
			c0.96-0.256,1.877-0.576,2.859-0.768c2.581-0.491,5.248-0.811,7.979-0.811c2.752,0,5.419,0.32,8.021,0.811
			c0.981,0.192,1.899,0.512,2.837,0.768c1.579,0.427,3.157,0.853,4.651,1.451c1.067,0.427,2.091,0.939,3.115,1.429
			c1.301,0.64,2.581,1.301,3.819,2.069c0.981,0.619,1.92,1.259,2.837,1.941c1.173,0.875,2.304,1.813,3.371,2.795
			c0.811,0.747,1.621,1.493,2.368,2.283c1.067,1.131,2.048,2.368,2.987,3.605c0.597,0.811,1.237,1.579,1.792,2.432
			c0.939,1.451,1.728,2.987,2.475,4.565c0.384,0.789,0.853,1.536,1.173,2.368c0.811,1.984,1.408,4.053,1.92,6.165
			c0.107,0.491,0.32,0.939,0.427,1.429l0.021,0.043c0.576,2.752,0.853,5.611,0.853,8.512
			C149.333,439.52,130.219,458.656,106.667,458.656z M213.333,223.989H109.675l26.667-106.667h76.992V223.989z M234.667,223.989
			v-72.171l36.075,72.171H234.667z M373.333,458.656c-45.483,0-84.907-26.069-104.384-64h104.384
			c29.419,0,53.333-23.936,53.333-53.333c0-29.397-23.915-53.333-53.333-53.333H268.949c0.107-0.192,0.171-0.384,0.277-0.576
			c1.045-2.005,2.176-3.968,3.349-5.909c0.917-1.536,1.813-3.093,2.795-4.587c1.835-2.773,3.819-5.461,5.888-8.107
			c0.427-0.533,0.811-1.131,1.237-1.643c2.773-3.371,5.717-6.592,8.875-9.664c0.107-0.107,0.213-0.192,0.32-0.299
			c3.008-2.901,6.208-5.675,9.557-8.277c19.925-15.552,44.928-24.939,72.085-24.939c64.683,0,117.333,52.629,117.333,117.333
			S438.016,458.656,373.333,458.656z M362.667,341.323c0-5.888,4.779-10.667,10.667-10.667c5.888,0,10.667,4.779,10.667,10.667
			c0,5.888-4.779,10.667-10.667,10.667C367.445,351.989,362.667,347.211,362.667,341.323z"/>
	</g>
</g>
<g>
</g>
<g>
</g>
<g>
</g>
<g>
</g>
<g>
</g>
<g>
</g>
<g>
</g>
<g>
</g>
<g>
</g>
<g>
</g>
<g>
</g>
<g>
</g>
<g>
</g>
<g>
</g>
<g>
</g>
</svg>
