<?xml version="1.0" encoding="iso-8859-1"?>
<!-- Generator: Adobe Illustrator 19.0.0, SVG Export Plug-In . SVG Version: 6.00 Build 0)  -->
<svg version="1.1" id="Capa_1" xmlns="http://www.w3.org/2000/svg" xmlns:xlink="http://www.w3.org/1999/xlink" x="0px" y="0px"
	 viewBox="0 0 512 512" style="enable-background:new 0 0 512 512;" xml:space="preserve">
<g>
	<g>
		<g>
			<path d="M498.286,274.286c-12.624,0-22.857,10.234-22.857,22.857c0,12.624,10.234,22.857,22.857,22.857H512v-45.714H498.286z"/>
			<polygon points="219.429,146.286 131.109,264.046 219.429,304.183 			"/>
			<path d="M484.571,420.571h-73.143C396.299,420.616,384.044,432.87,384,448v9.143h128V448
				C511.956,432.87,499.702,420.616,484.571,420.571z"/>
			<path d="M96.091,393.309c33.457,2.428,59.356,30.288,59.338,63.833h64c0.039-35.33,28.67-63.961,64-64V353.28l-58.331-26.514
				h-0.091L5.577,227.017L0,224.457v200.869l28.16,22.583C32.985,414.712,62.634,390.882,96.091,393.309z M19.334,261.05
				c2.264-4.477,7.72-6.285,12.209-4.044L86.4,284.434c2.166,1.082,3.81,2.986,4.566,5.287c0.756,2.301,0.56,4.808-0.543,6.965
				c-1.518,3.103-4.683,5.059-8.137,5.029c-1.434,0.015-2.849-0.331-4.114-1.006L23.314,273.28
				C18.849,270.993,17.07,265.528,19.334,261.05z M19.334,297.621c2.264-4.477,7.72-6.285,12.209-4.044L86.4,321.006
				c2.166,1.082,3.81,2.986,4.566,5.287s0.56,4.808-0.543,6.964c-1.518,3.103-4.683,5.059-8.137,5.029
				c-1.434,0.015-2.849-0.331-4.114-1.006l-54.857-27.429C18.849,307.564,17.07,302.099,19.334,297.621z M23.314,346.423
				c-4.466-2.287-6.244-7.752-3.98-12.23c2.264-4.477,7.72-6.285,12.209-4.044L86.4,357.577c2.166,1.082,3.81,2.986,4.566,5.287
				s0.56,4.808-0.543,6.965c-1.518,3.103-4.683,5.059-8.137,5.029c-1.434,0.015-2.849-0.331-4.114-1.006L23.314,346.423z"/>
			<rect x="237.714" y="91.429" width="45.714" height="18.286"/>
			<path d="M384,22.857c0.005-3.639-1.438-7.13-4.011-9.703c-2.573-2.573-6.064-4.016-9.703-4.011
				c-3.639-0.005-7.13,1.438-9.703,4.011c-2.573,2.573-4.016,6.064-4.011,9.703v22.857H384V22.857z"/>
			<path d="M91.429,448c-5.049,0-9.143,4.093-9.143,9.143s4.093,9.143,9.143,9.143c5.049,0,9.143-4.093,9.143-9.143
				C100.556,452.1,96.472,448.015,91.429,448z"/>
			<path d="M219.429,115.84V73.143c-0.015-5.043-4.1-9.128-9.143-9.143H45.714c-15.13,0.044-27.384,12.299-27.429,27.429v121.326
				l95.817,43.52L219.429,115.84z"/>
			<polygon points="283.429,307.749 237.714,288.183 237.714,312.411 283.429,333.257 			"/>
			<polygon points="283.429,128 237.714,128 237.714,268.251 283.429,287.817 			"/>
			<path d="M283.429,411.429c-25.247,0-45.714,20.467-45.714,45.714s20.467,45.714,45.714,45.714s45.714-20.467,45.714-45.714
				C329.134,431.899,308.672,411.438,283.429,411.429z M283.429,484.571c-15.148,0-27.429-12.28-27.429-27.429
				s12.28-27.429,27.429-27.429s27.429,12.28,27.429,27.429C310.813,472.273,298.559,484.527,283.429,484.571z"/>
			<path d="M493.714,502.857h9.143c5.043-0.015,9.128-4.1,9.143-9.143v-18.286h-18.286V502.857z"/>
			<path d="M365.714,475.429h-20.937c-3.152,10.396-8.875,19.83-16.64,27.429h39.223c-1.064-2.932-1.62-6.024-1.646-9.143V475.429z"
				/>
			<rect x="420.571" y="475.429" width="18.286" height="27.429"/>
			<path d="M384,493.714c0.015,5.043,4.1,9.128,9.143,9.143h9.143v-27.429H384V493.714z"/>
			<path d="M347.429,310.857v36.571c0.03,10.087,8.199,18.256,18.286,18.286h91.429v-23.04l-39.771-31.817H347.429z"/>
			<path d="M457.143,402.286V384h-91.429c-9.7,0.003-19.004-3.85-25.863-10.709c-6.859-6.859-10.711-16.163-10.709-25.863v-36.571
				c0.029-10.087,8.199-18.256,18.286-18.286h69.943c4.153,0.021,8.178,1.438,11.429,4.023l28.343,22.674v-44.983h-69.394
				c-4.845-0.003-9.488-1.946-12.891-5.394l-40.32-40.32c-3.448-3.404-5.391-8.046-5.394-12.891V128
				c-0.003-9.7,3.849-19.004,10.708-25.863s16.163-10.711,25.863-10.708h91.429V73.143c-0.015-5.043-4.1-9.128-9.143-9.143H320
				c-10.087,0.029-18.256,8.199-18.286,18.286v313.509c27.087,8.149,45.651,33.063,45.714,61.349h18.286V448
				c0.009-25.243,20.471-45.705,45.714-45.714H457.143z M320,265.143c0-5.049,4.093-9.143,9.143-9.143h9.143
				c2.432-0.024,4.772,0.931,6.492,2.651c1.72,1.72,2.675,4.059,2.651,6.492c-0.015,5.043-4.1,9.128-9.143,9.143h-9.143
				C324.093,274.286,320,270.192,320,265.143z"/>
			<path d="M91.429,411.429c-25.247,0-45.714,20.467-45.714,45.714s20.467,45.714,45.714,45.714s45.714-20.467,45.714-45.714
				C137.134,431.899,116.672,411.438,91.429,411.429z M91.429,484.571C76.28,484.571,64,472.291,64,457.143
				s12.28-27.429,27.429-27.429s27.429,12.28,27.429,27.429C118.813,472.273,106.559,484.527,91.429,484.571z"/>
			<path d="M152.777,475.429c-3.152,10.396-8.875,19.83-16.64,27.429H238.72c-7.765-7.598-13.488-17.032-16.64-27.429H152.777z"/>
			<path d="M347.429,128v87.68l40.32,40.32h69.394V109.714h-91.429C355.628,109.744,347.458,117.913,347.429,128z M420.754,135.314
				c0.099-0.573,0.284-1.128,0.549-1.646c0.2-0.583,0.476-1.136,0.823-1.646l1.097-1.371c0.457-0.366,0.914-0.731,1.463-1.097
				c0.466-0.362,0.992-0.641,1.554-0.823c0.518-0.264,1.073-0.449,1.646-0.549c3.009-0.568,6.108,0.351,8.32,2.469
				c0.393,0.435,0.76,0.893,1.097,1.371c0.346,0.51,0.623,1.063,0.823,1.646c0.264,0.518,0.449,1.073,0.549,1.646
				c0.106,0.604,0.167,1.215,0.183,1.829c-0.035,2.42-0.982,4.739-2.651,6.491c-2.616,2.637-6.567,3.43-9.998,2.006
				s-5.658-4.783-5.637-8.497C420.587,136.53,420.648,135.918,420.754,135.314z M374.857,128h18.286
				c5.049,0,9.143,4.093,9.143,9.143c0,5.049-4.093,9.143-9.143,9.143h-18.286c-5.049,0-9.143-4.093-9.143-9.143
				C365.714,132.093,369.808,128,374.857,128z"/>
			<rect x="457.143" y="475.429" width="18.286" height="27.429"/>
			<path d="M283.429,448c-5.049,0-9.143,4.093-9.143,9.143s4.093,9.143,9.143,9.143s9.143-4.093,9.143-9.143
				C292.556,452.1,288.472,448.015,283.429,448z"/>
		</g>
	</g>
</g>
<g>
</g>
<g>
</g>
<g>
</g>
<g>
</g>
<g>
</g>
<g>
</g>
<g>
</g>
<g>
</g>
<g>
</g>
<g>
</g>
<g>
</g>
<g>
</g>
<g>
</g>
<g>
</g>
<g>
</g>
</svg>
