<?xml version="1.0" encoding="iso-8859-1"?>
<!-- Generator: Adobe Illustrator 18.0.0, SVG Export Plug-In . SVG Version: 6.00 Build 0)  -->
<!DOCTYPE svg PUBLIC "-//W3C//DTD SVG 1.1//EN" "http://www.w3.org/Graphics/SVG/1.1/DTD/svg11.dtd">
<svg version="1.1" id="Capa_1" xmlns="http://www.w3.org/2000/svg" xmlns:xlink="http://www.w3.org/1999/xlink" x="0px" y="0px"
	 viewBox="0 0 490 490" style="enable-background:new 0 0 490 490;" xml:space="preserve">
<g>
	<path d="M480.278,302.496h-0.956v-69.569c0-2.295-0.817-4.521-2.297-6.277l-51.898-61.46c-1.845-2.192-4.555-3.449-7.426-3.449
		h-70.765c-5.36,0-9.722,4.361-9.722,9.727v131.029H9.726c-5.365,0-9.726,4.363-9.726,9.726v37.025c0,5.36,4.361,9.722,9.726,9.722
		h25.797c0.957,0,3.578-0.436,3.578-3.921c0-17.685,14.389-32.073,32.074-32.073c17.684,0,32.074,14.388,32.074,32.128
		c0,3.43,2.615,3.866,3.57,3.866h7.68c0.955,0,3.578-0.436,3.578-3.921c0-17.685,14.387-32.073,32.072-32.073
		c17.686,0,32.072,14.388,32.072,32.128c0,3.43,2.619,3.866,3.574,3.866h56.921c0.962,0,3.58-0.436,3.58-3.921
		c0-17.685,14.387-32.073,32.072-32.073c17.688,0,32.073,14.388,32.073,32.14c0,3.418,2.61,3.854,3.57,3.854h63.987
		c0.961,0,3.569-0.436,3.569-3.921c0-17.685,14.395-32.073,32.072-32.073c17.688,0,32.082,14.388,32.082,32.14
		c0,3.315,2.612,3.854,3.572,3.854h30.982c5.36,0,9.722-4.361,9.722-9.722v-37.025C490,306.859,485.639,302.496,480.278,302.496z
		 M443.811,231.116c-0.518,1.069-1.594,1.75-2.771,1.75h-0.001l-76.593-0.015c-1.699,0-3.075-1.376-3.075-3.071v-42.508
		c0-1.695,1.376-3.071,3.077-3.071h42.23c0.929,0,1.809,0.42,2.389,1.142l34.36,42.521
		C444.165,228.786,444.316,230.049,443.811,231.116z"/>
	<path d="M308.666,114.65H6.655c-3.679,0-6.655,2.982-6.655,6.655v152.696c0,3.677,2.977,6.655,6.655,6.655h302.011
		c3.678,0,6.654-2.978,6.654-6.655V121.305C315.32,117.632,312.344,114.65,308.666,114.65z M53.215,249.044
		c0,6.219-5.039,11.261-11.26,11.261c-6.219,0-11.26-5.042-11.26-11.261V146.263c0-6.219,5.041-11.261,11.26-11.261
		c6.221,0,11.26,5.042,11.26,11.261V249.044z M99.5,249.044c0,6.219-5.041,11.261-11.26,11.261c-6.221,0-11.262-5.042-11.262-11.261
		V146.263c0-6.219,5.041-11.261,11.262-11.261c6.219,0,11.26,5.042,11.26,11.261V249.044z M145.777,249.044
		c0,6.219-5.041,11.261-11.26,11.261c-6.219,0-11.26-5.042-11.26-11.261V146.263c0-6.219,5.041-11.261,11.26-11.261
		c6.219,0,11.26,5.042,11.26,11.261V249.044z M192.059,249.044c0,6.219-5.037,11.261-11.256,11.261
		c-6.219,0-11.262-5.042-11.262-11.261V146.263c0-6.219,5.043-11.261,11.262-11.261c6.219,0,11.256,5.042,11.256,11.261V249.044z
		 M238.341,249.044c0,6.219-5.036,11.261-11.259,11.261c-6.217,0-11.261-5.042-11.261-11.261V146.263
		c0-6.219,5.044-11.261,11.261-11.261c6.223,0,11.259,5.042,11.259,11.261V249.044z M284.626,249.044
		c0,6.219-5.046,11.261-11.266,11.261c-6.218,0-11.255-5.042-11.255-11.261V146.263c0-6.219,5.037-11.261,11.255-11.261
		c6.22,0,11.266,5.042,11.266,11.261V249.044z"/>
	<path d="M433.952,355.047c0,11.213-9.09,20.303-20.31,20.303c-11.206,0-20.296-9.09-20.296-20.303
		c0-11.213,9.09-20.303,20.296-20.303C424.862,334.745,433.952,343.835,433.952,355.047z"/>
	<path d="M298.669,355.047c0,11.213-9.09,20.303-20.299,20.303c-11.218,0-20.307-9.09-20.307-20.303
		c0-11.213,9.089-20.303,20.307-20.303C289.579,334.745,298.669,343.835,298.669,355.047z"/>
	<circle cx="150.149" cy="355.047" r="20.3"/>
	<circle cx="71.174" cy="355.047" r="20.301"/>
</g>
<g>
</g>
<g>
</g>
<g>
</g>
<g>
</g>
<g>
</g>
<g>
</g>
<g>
</g>
<g>
</g>
<g>
</g>
<g>
</g>
<g>
</g>
<g>
</g>
<g>
</g>
<g>
</g>
<g>
</g>
</svg>
