<?xml version="1.0" standalone="no"?>
<!DOCTYPE svg PUBLIC "-//W3C//DTD SVG 20010904//EN"
 "http://www.w3.org/TR/2001/REC-SVG-20010904/DTD/svg10.dtd">
<svg version="1.0" xmlns="http://www.w3.org/2000/svg"
 width="700.000000pt" height="700.000000pt" viewBox="0 0 700.000000 700.000000"
 preserveAspectRatio="xMidYMid meet">
<metadata>
Created by potrace 1.11, written by Peter Selinger 2001-2013
</metadata>
<g transform="translate(0.000000,700.000000) scale(0.100000,-0.100000)"
fill="#000000" stroke="none">
<path d="M3308 6995 c-1 -2 -32 -6 -68 -9 -108 -10 -316 -42 -330 -51 -4 -2
-20 -7 -36 -10 -16 -3 -54 -12 -84 -21 -30 -8 -68 -19 -85 -23 -77 -21 -244
-89 -381 -157 -653 -322 -1149 -905 -1359 -1598 -31 -102 -41 -140 -44 -166
-1 -3 -13 -7 -27 -8 -47 -4 -124 -31 -179 -62 -104 -60 -195 -192 -214 -310
-5 -28 -7 -349 -6 -713 1 -575 4 -667 17 -703 57 -149 144 -239 281 -293 l57
-23 0 -582 0 -582 27 -27 c60 -57 255 -123 478 -162 46 -8 94 -17 107 -19 13
-3 46 -8 73 -12 88 -11 99 -13 155 -20 30 -3 64 -8 75 -9 24 -3 129 -14 200
-21 28 -2 70 -6 95 -9 66 -7 154 -14 245 -20 44 -3 109 -7 145 -10 71 -5 271
-14 475 -21 152 -5 1011 -5 1135 0 47 2 162 7 255 11 94 4 190 8 215 10 25 1
95 6 155 10 61 3 121 8 135 10 14 2 64 6 112 10 49 3 96 8 105 9 10 2 54 7 98
11 44 4 87 9 95 10 8 1 42 5 75 9 72 10 291 43 321 50 12 2 38 7 59 10 130 21
341 88 398 127 66 46 62 3 61 626 -1 313 0 576 3 586 2 9 13 17 24 17 34 0
129 52 181 99 64 57 101 113 129 192 23 64 23 64 25 729 1 721 0 733 -54 834
-15 28 -52 76 -82 107 -74 75 -137 106 -270 133 -23 5 -29 17 -62 133 -199
704 -696 1300 -1358 1631 -173 87 -174 87 -355 147 -175 58 -321 92 -470 110
-27 4 -61 9 -75 11 -28 6 -466 14 -472 9z m1477 -1818 c116 -29 161 -45 241
-82 266 -124 454 -357 525 -652 20 -81 22 -118 23 -438 l2 -350 -41 -44 c-22
-25 -47 -52 -55 -61 -47 -51 -124 -136 -185 -205 -38 -43 -75 -83 -80 -89 -6
-6 -54 -58 -106 -116 l-94 -105 -441 0 -442 0 -42 44 c-39 40 -102 76 -153 87
-96 21 -213 -11 -284 -79 -165 -157 -123 -417 84 -518 38 -18 65 -23 128 -23
90 0 146 19 207 73 l36 31 516 0 c554 0 553 0 607 51 22 21 116 124 286 312
30 34 53 53 55 45 8 -22 -21 -181 -48 -263 -110 -343 -436 -605 -798 -642 -79
-9 -2395 -8 -2461 0 -244 30 -472 156 -629 347 -102 125 -175 293 -203 470
-12 75 -9 1323 3 1402 64 407 358 715 762 798 81 16 174 17 1322 16 679 -1
1249 -5 1265 -9z"/>
<path d="M594 1348 c-42 -20 -44 -39 -44 -518 l0 -458 42 -36 c23 -20 76 -49
117 -65 118 -46 389 -108 586 -136 75 -11 105 -15 138 -20 33 -5 77 -10 162
-19 28 -3 93 -11 145 -16 52 -6 120 -13 150 -15 31 -3 85 -7 120 -10 133 -11
341 -24 475 -30 55 -2 170 -8 255 -12 331 -15 1385 -8 1750 12 36 2 124 6 195
10 72 3 146 8 165 10 19 2 77 6 127 10 51 3 105 8 120 10 16 2 62 6 103 10 41
3 89 8 105 10 17 2 55 7 85 10 30 3 66 7 80 10 14 2 52 6 84 10 32 3 62 7 65
9 3 2 35 7 71 10 99 11 395 71 490 101 115 36 221 89 245 122 19 27 20 44 20
484 0 411 -2 458 -17 481 -27 42 -66 44 -160 9 -105 -38 -209 -65 -373 -97
-11 -2 -31 -6 -45 -9 -14 -3 -43 -7 -65 -10 -22 -3 -51 -8 -65 -10 -77 -14
-244 -36 -370 -49 -30 -4 -71 -8 -90 -11 -19 -2 -71 -7 -115 -10 -44 -4 -96
-8 -115 -10 -19 -2 -78 -6 -130 -10 -52 -3 -113 -8 -135 -10 -39 -3 -214 -13
-365 -20 -621 -29 -1683 -20 -2154 20 -28 2 -96 7 -151 10 -55 4 -113 8 -130
10 -16 1 -66 6 -110 10 -44 3 -96 8 -115 10 -19 2 -60 7 -90 10 -30 3 -71 8
-90 10 -19 3 -54 7 -77 10 -100 12 -124 15 -218 30 -194 31 -391 76 -507 115
-125 43 -132 44 -164 28z"/>
</g>
</svg>
